<svg xmlns="http://www.w3.org/2000/svg" viewBox="0 0 240 110">
  <defs>
    <linearGradient id="glass" x1="0" y1="0" x2="1" y2="1">
      <stop offset="0" stop-color="#ffffff" stop-opacity=".92"/>
      <stop offset=".42" stop-color="#bfe8ff" stop-opacity=".58"/>
      <stop offset="1" stop-color="#73bde9" stop-opacity=".78"/>
    </linearGradient>
    <linearGradient id="edge" x1="0" y1="0" x2="1" y2="0">
      <stop offset="0" stop-color="#ffffff" stop-opacity=".92"/>
      <stop offset="1" stop-color="#f4e3a1" stop-opacity=".92"/>
    </linearGradient>
    <filter id="glow" x="-50%" y="-70%" width="200%" height="240%">
      <feGaussianBlur stdDeviation="4" result="blur"/>
      <feMerge>
        <feMergeNode in="blur"/>
        <feMergeNode in="SourceGraphic"/>
      </feMerge>
    </filter>
  </defs>
  <path d="M50 72 C82 83,118 76,152 58 C173 47,196 38,221 39 C227 40,231 43,229 48 C219 70,194 87,152 91 L49 91 C37 91,28 89,19 83 C12 78,12 72,20 69 C29 66,38 68,50 72 Z" fill="url(#glass)" stroke="url(#edge)" stroke-width="3" filter="url(#glow)"/>
  <path d="M159 60 C165 73,167 88,163 105" fill="none" stroke="url(#edge)" stroke-width="8" stroke-linecap="round"/>
  <path d="M165 104 L142 105" stroke="#f4e3a1" stroke-opacity=".8" stroke-width="5" stroke-linecap="round"/>
  <path d="M64 68 C83 56,105 39,130 21 C140 14,150 13,160 20 C151 37,132 53,108 64 C90 73,75 75,64 68 Z" fill="#dff6ff" fill-opacity=".34" stroke="#fff8e6" stroke-opacity=".55" stroke-width="2"/>
  <path d="M36 75 C60 84,111 84,151 64" fill="none" stroke="#ffffff" stroke-opacity=".72" stroke-width="2"/>
  <circle cx="94" cy="66" r="4" fill="#fff8e6" opacity=".95"/>
  <circle cx="118" cy="56" r="3" fill="#f4e3a1" opacity=".86"/>
  <circle cx="145" cy="43" r="3.5" fill="#fff" opacity=".82"/>
</svg>
